<svg width="25" height="24" viewBox="0 0 25 24" fill="none" xmlns="http://www.w3.org/2000/svg">
<path d="M12.7014 5.8467C9.2954 5.8467 6.5481 8.594 6.5481 12C6.5481 15.406 9.2954 18.1533 12.7014 18.1533C16.1074 18.1533 18.8547 15.406 18.8547 12C18.8547 8.594 16.1074 5.8467 12.7014 5.8467ZM12.7014 16.0004C10.5004 16.0004 8.70095 14.2064 8.70095 12C8.70095 9.7936 10.495 7.99955 12.7014 7.99955C14.9078 7.99955 16.7018 9.7936 16.7018 12C16.7018 14.2064 14.9024 16.0004 12.7014 16.0004ZM20.5416 5.595C20.5416 6.39295 19.899 7.03024 19.1064 7.03024C18.3085 7.03024 17.6712 6.38759 17.6712 5.595C17.6712 4.80241 18.3138 4.15977 19.1064 4.15977C19.899 4.15977 20.5416 4.80241 20.5416 5.595ZM24.6171 7.05166C24.526 5.12909 24.0869 3.42609 22.6784 2.02298C21.2753 0.619882 19.5723 0.180743 17.6497 0.0843468C15.6683 -0.0281156 9.72918 -0.0281156 7.7477 0.0843468C5.83049 0.175388 4.12749 0.614526 2.71903 2.01763C1.31057 3.42073 0.876788 5.12373 0.780392 7.0463C0.667929 9.02778 0.667929 14.9669 0.780392 16.9483C0.871433 18.8709 1.31057 20.5739 2.71903 21.977C4.12749 23.3801 5.82513 23.8193 7.7477 23.9157C9.72918 24.0281 15.6683 24.0281 17.6497 23.9157C19.5723 23.8246 21.2753 23.3855 22.6784 21.977C24.0815 20.5739 24.5207 18.8709 24.6171 16.9483C24.7295 14.9669 24.7295 9.03314 24.6171 7.05166ZM22.0572 19.0744C21.6395 20.1241 20.8308 20.9327 19.7758 21.3558C18.196 21.9824 14.4472 21.8378 12.7014 21.8378C10.9556 21.8378 7.20146 21.977 5.62698 21.3558C4.57733 20.9381 3.76868 20.1294 3.3456 19.0744C2.71903 17.4946 2.86362 13.7458 2.86362 12C2.86362 10.2542 2.72438 6.50006 3.3456 4.92558C3.76332 3.87593 4.57198 3.06728 5.62698 2.6442C7.20681 2.01763 10.9556 2.16222 12.7014 2.16222C14.4472 2.16222 18.2013 2.02298 19.7758 2.6442C20.8255 3.06192 21.6341 3.87058 22.0572 4.92558C22.6838 6.50541 22.5392 10.2542 22.5392 12C22.5392 13.7458 22.6838 17.4999 22.0572 19.0744Z" fill="white"/>
</svg>
