<svg width="35" height="24" viewBox="0 0 35 24" fill="none" xmlns="http://www.w3.org/2000/svg">
<path d="M34.1215 3.75519C33.729 2.27706 32.5724 1.11294 31.1038 0.717875C28.4419 0 17.7681 0 17.7681 0C17.7681 0 7.09435 0 4.43242 0.717875C2.96385 1.113 1.80723 2.27706 1.41467 3.75519C0.701416 6.43438 0.701416 12.0243 0.701416 12.0243C0.701416 12.0243 0.701416 17.6141 1.41467 20.2933C1.80723 21.7714 2.96385 22.8871 4.43242 23.2821C7.09435 24 17.7681 24 17.7681 24C17.7681 24 28.4419 24 31.1038 23.2821C32.5724 22.8871 33.729 21.7714 34.1215 20.2933C34.8348 17.6141 34.8348 12.0243 34.8348 12.0243C34.8348 12.0243 34.8348 6.43438 34.1215 3.75519ZM14.2772 17.0994V6.94906L23.1984 12.0244L14.2772 17.0994Z" fill="white"/>
</svg>
